<svg xmlns="http://www.w3.org/2000/svg" width="30" height="30" viewBox="0 0 50 59">
  <g id="_1_pin_1_" transform="translate(-540 -553)">
    <g id="Group_11" transform="translate(-448 -1921)">
      <g id="Group_10" transform="translate(-206 31)">
        <circle id="Ellipse_1" cx="25" cy="25" r="25" transform="translate(1194 2443)" fill="#21409a"/>
        <path id="Path_1" d="M13.5,0,27,23H0Z" transform="translate(1233 2502) rotate(180)" fill="#21409a"/>
        <circle id="Ellipse_2" cx="20" cy="20" r="20" transform="translate(1199 2448)" fill="#fff"/>
      </g>
    </g>
    <g id="Group_12" transform="translate(547.767 561)">
      <circle id="Ellipse_3" cx="17" cy="17" r="17" transform="translate(0.233)" fill="#21409a"/>
      <path id="Path_4" d="M11.8,4.3H10.257V3.019a.769.769,0,0,0-.769-.769H.769A.769.769,0,0,0,0,3.019V15.84a.769.769,0,0,0,.769.769H9.488a.769.769,0,0,0,.769-.769V14.49l2.584-1.153a2.567,2.567,0,0,0,1.519-2.344V6.866A2.567,2.567,0,0,0,11.8,4.3Zm.513,6.694a.513.513,0,0,1-.3.468l-1.748.781V6.354h1.539a.513.513,0,0,1,.513.513ZM6.667,13.532a.513.513,0,0,1-.513-.513V5.84a.513.513,0,0,1,1.026,0v7.18a.513.513,0,0,1-.513.513Zm-3.077,0a.513.513,0,0,1-.513-.513V5.84a.513.513,0,1,1,1.026,0v7.18a.513.513,0,0,1-.513.513Z" transform="translate(11.766 8.282)" fill="#fff"/>
    </g>
  </g>
</svg>
